<svg width="28" height="24" viewBox="0 0 28 24" fill="none" xmlns="http://www.w3.org/2000/svg">
<path d="M27.5 24H0.5V0H27.5V24Z" stroke="#E5E7EB"/>
<g clip-path="url(#clip0_5_1086)">
<path d="M19.8828 11.1328C18.5609 11.3578 17.1547 10.9641 16.1328 9.94219L14.3469 8.15625C13.6437 7.45312 13.25 6.50625 13.25 5.5125V4.94531L9.51406 2.90625C9.26563 2.77031 9.11094 2.50312 9.125 2.21719C9.13906 1.93125 9.30781 1.67812 9.57031 1.56094L11.7828 0.576563C12.6453 0.196875 13.5781 0 14.525 0H15.3734C17.0937 0 18.7484 0.65625 20 1.83281L22.0906 3.80156C23.225 4.87031 23.6469 6.4125 23.3375 7.83281L24.0781 8.57812L24.4531 8.20312C24.8937 7.7625 25.6063 7.7625 26.0422 8.20312L27.1672 9.32812C27.6078 9.76875 27.6078 10.4812 27.1672 10.9172L23.0422 15.0422C22.6016 15.4828 21.8891 15.4828 21.4531 15.0422L20.3281 13.9172C19.8875 13.4766 19.8875 12.7641 20.3281 12.3281L20.7031 11.9531L19.8828 11.1328ZM1.78437 17.6766L12.7297 8.55938C12.8937 8.78906 13.0813 9.00938 13.2828 9.21563L15.0687 11.0016C15.35 11.2828 15.65 11.5266 15.9688 11.7375L6.82344 22.7156C6.14375 23.5313 5.13594 24 4.07656 24C2.09844 24 0.5 22.3969 0.5 20.4234C0.5 19.3641 0.973438 18.3563 1.78437 17.6766Z" fill="#525252"/>
</g>
<defs>
<clipPath id="clip0_5_1086">
<path d="M0.5 0H27.5V24H0.5V0Z" fill="white"/>
</clipPath>
</defs>
</svg>
